<svg xmlns="http://www.w3.org/2000/svg" width="99.607" height="36" viewBox="0 0 99.607 36"><defs><linearGradient id="linear-gradient" x1=".295" x2=".899" y1=".5" y2=".046" gradientUnits="objectBoundingBox"><stop offset="0" stop-color="#d3ea4e"/><stop offset="1" stop-color="#2fb66b"/></linearGradient><filter id="Ellipse_855" width="36" height="36" x="0" y="0" filterUnits="userSpaceOnUse"><feOffset dy="3" input="SourceAlpha"/><feGaussianBlur result="blur" stdDeviation="1.5"/><feFlood flood-opacity=".431"/><feComposite in2="blur" operator="in"/><feComposite in="SourceGraphic"/></filter></defs><g id="Group_6903" data-name="Group 6903" transform="translate(6731.045 -8935.501)"><g id="Group_6899" data-name="Group 6899" transform="translate(673.121 1363.001)"><g id="Popular" transform="translate(-7399.666 7574)"><path id="Subtraction_40" fill="url(#linear-gradient)" d="M67.074 22H5a5.006 5.006 0 0 1-5-5V5a5.006 5.006 0 0 1 5-5h62.074a4.972 4.972 0 0 1 1.87.362 12.309 12.309 0 0 0-3.106 4.678 17.926 17.926 0 0 0-1.178 6.482 15.734 15.734 0 0 0 3.494 10.362 5.029 5.029 0 0 1-1.08.116Z" data-name="Subtraction 40" transform="rotate(180 47.554 12.572)"/><g filter="url(#Ellipse_855)" transform="translate(-4.5 -1.5)"><circle id="Ellipse_855-2" cx="13.5" cy="13.5" r="13.5" fill="#fff" data-name="Ellipse 855" transform="translate(4.5 1.5)"/></g><text id="Top_10" fill="#0d0d0d" data-name="Top 10" font-family="Helvetica-Bold, Helvetica" font-size="15" font-weight="700" transform="translate(61.092 19.5)"><tspan x="-25.58" y="0">TOP 10</tspan></text></g><path id="star_2_" fill="#2fb66b" d="M9.335 2 7.069 6.592 2 7.333l3.668 3.572-.868 5.047 4.533-2.384 4.533 2.384L13 10.905l3.668-3.572-5.068-.741Z" data-name="star (2)" transform="translate(-7395.48 7578.524)"/></g></g></svg>